PathFileType	4	(X/Y/Z)	7_coords_data.trc
DataRate	CameraRate	NumFrames	NumMarkers	Units	OrigDataRate	OrigDataStartFrame	OrigNumFrames
30.0	30.0	6	21	m	30.0	10	49
Frame#	Time	THUMB_TIP	THUMB_IP	THUMB_MCP	THUMB_CMC	INDEX_TIP	INDEX_DIP	INDEX_PIP	INDEX_MCP	MIDDLE_TIP	MIDDLE_DIP	MIDDLE_PIP	MIDDLE_MCP	RING_TIP	RING_DIP	RING_PIP	RING_MCP	PINKY_TIP	PINKY_DIP	PINKY_PIP	PINKY_MCP	WRIST
X1	Y1	Z1	X2	Y2	Z2	X3	Y3	Z3	X4	Y4	Z4	X5	Y5	Z5	X6	Y6	Z6	X7	Y7	Z7	X8	Y8	Z8	X9	Y9	Z9	X10	Y10	Z10	X11	Y11	Z11	X12	Y12	Z12	X13	Y13	Z13	X14	Y14	Z14	X15	Y15	Z15	X16	Y16	Z16	X17	Y17	Z17	X18	Y18	Z18	X19	Y19	Z19	X20	Y20	Z20	X21	Y21	Z21
9	0.3	-0.026616199493408203	-0.0585166015625	0.9863599853515626	-0.031955799102783206	-0.04362269973754883	1.0087899780273437	-0.0404297981262207	-0.0338667984008789	1.036030029296875	-0.04286569976806641	-0.005675439834594727	1.0573900146484374	-0.032247100830078125	-0.014005900382995606	1.022780029296875	-0.020092399597167968	-0.012214900016784668	1.007530029296875	-0.02553619956970215	-0.009966250419616698	0.9853709716796875	-0.06120029830932617	-0.010683500289916992	1.000239990234375	-0.030435800552368164	-0.0010737500190734861	1.03097998046875	-0.01804210090637207	0.004154300212860108	1.0185	-0.01902009963989258	0.011450200080871583	0.9920880126953125	-0.0600000991821289	0.013422599792480469	0.998010009765625	-0.034947200775146486	0.013217000007629395	1.0403800048828125	-0.021381200790405272	0.019450599670410157	1.0292099609375	-0.018154399871826172	0.0295177001953125	1.0067100219726564	-0.05719900131225586	0.03280889892578125	1.0066099853515624	-0.036512401580810545	0.027970100402832033	1.046469970703125	-0.022923500061035156	0.03303329849243164	1.038050048828125	-0.02162619972229004	0.042286598205566406	1.0226799926757812	-0.05123320007324219	0.04820700073242187	1.019280029296875	-0.060866199493408206	0.018959499359130858	1.0735400390625
10	0.3333333333333333	-0.027374300003051757	-0.05929970169067383	0.9867750244140625	-0.032383399963378905	-0.04417490005493164	1.0091099853515626	-0.04060499954223633	-0.03410689926147461	1.036300048828125	-0.04285100173950195	-0.005685840129852295	1.0574200439453125	-0.032146900177001954	-0.014093899726867675	1.0228200073242188	-0.020040899276733398	-0.012425399780273438	1.007530029296875	-0.025397300720214844	-0.010189599990844726	0.9854970092773437	-0.0610260009765625	-0.010824600219726562	1.0000999755859374	-0.030320499420166017	-0.001137150049209594	1.0309599609375	-0.01784950065612793	0.004062920093536377	1.01847998046875	-0.01881100082397461	0.011278800010681152	0.992155029296875	-0.0597307014465332	0.013354100227355958	0.9979359741210938	-0.03478950119018555	0.013177000045776367	1.04027001953125	-0.021200700759887694	0.019361799240112304	1.029199951171875	-0.01787969970703125	0.029347700119018556	1.0067899780273437	-0.05689950180053711	0.03275640106201172	1.006469970703125	-0.036262798309326175	0.02769330024719238	1.0467099609375	-0.02265760040283203	0.03295180130004883	1.038010009765625	-0.021335699081420897	0.04223189926147461	1.0226199951171875	-0.050964900970458984	0.04817440032958984	1.0191599731445313	-0.06065349960327148	0.019044599533081054	1.0733399658203124
11	0.36666666666666664	-0.027599599838256834	-0.059561199188232425	0.9868729858398437	-0.03257490158081055	-0.04438759994506836	1.0091900024414062	-0.04074100112915039	-0.03414950180053711	1.0363399658203125	-0.04292350006103516	-0.005680699825286865	1.0574300537109376	-0.032513801574707034	-0.014179100036621093	1.022739990234375	-0.020003700256347658	-0.01253219985961914	1.0076400146484374	-0.025358299255371093	-0.010332599639892578	0.9854979858398437	-0.06103789901733398	-0.010831700325012208	1.000219970703125	-0.03042970085144043	-0.001204980015754699	1.03081005859375	-0.017859500885009767	0.003946099996566772	1.0185	-0.01878890037536621	0.011143199920654297	0.9920430297851562	-0.05970859909057617	0.013293100357055663	0.9978909912109375	-0.03477299880981445	0.013074600219726562	1.0401400146484374	-0.021209400177001955	0.01927560043334961	1.0291600341796876	-0.01778019905090332	0.029201099395751953	1.006739990234375	-0.05688949966430664	0.03266410064697266	1.0064400024414062	-0.03596049880981445	0.027787099838256835	1.0464200439453124	-0.02266889953613281	0.03288830184936523	1.038	-0.021240900039672852	0.04207609939575195	1.0226099853515624	-0.05090380096435547	0.04809650039672852	1.0190599975585937	-0.06062020111083984	0.019138399124145507	1.0732900390625
12	0.4	-0.0273705997467041	-0.05944969940185547	0.9868099975585938	-0.03249160003662109	-0.04433440017700195	1.0090599975585937	-0.04089960098266601	-0.03419340133666992	1.0362900390625	-0.0430364990234375	-0.005725830078125	1.05731005859375	-0.03243209838867187	-0.014174799919128418	1.0229199829101563	-0.02011870002746582	-0.012616900444030762	1.0075800170898437	-0.025409500122070314	-0.01040839958190918	0.9854010009765625	-0.061109500885009764	-0.010828800201416015	0.9999990234375	-0.030451499938964843	-0.001256979942321777	1.0308699951171876	-0.01803860092163086	0.00383882999420166	1.0184299926757812	-0.01878580093383789	0.011045900344848633	0.9920479736328125	-0.059747398376464846	0.013281700134277343	0.9978259887695312	-0.03476060104370117	0.013031800270080567	1.0401800537109376	-0.02134040069580078	0.019188400268554687	1.0291400146484375	-0.017856300354003905	0.029134000778198242	1.0066900024414063	-0.05691329956054687	0.032687801361083985	1.0063800048828124	-0.0363734016418457	0.027886699676513672	1.04697998046875	-0.0228218994140625	0.032823299407958986	1.0379300537109375	-0.021286800384521486	0.042060001373291016	1.0224500122070312	-0.05092689895629883	0.048093799591064454	1.019010009765625	-0.06079349899291992	0.01911269950866699	1.07327001953125
13	0.43333333333333335	-0.027052900314331055	-0.058992298126220706	0.9865830078125	-0.03245780181884766	-0.0440713005065918	1.00897998046875	-0.04092290115356445	-0.0339911994934082	1.0360899658203124	-0.04321540069580078	-0.0056181797981262206	1.05725	-0.032648998260498045	-0.014195300102233887	1.0226400146484376	-0.02029610061645508	-0.012546600341796875	1.0074099731445312	-0.025688800811767578	-0.01028890037536621	0.985197998046875	-0.06134939956665039	-0.010758099555969238	0.9998060302734375	-0.030584499359130858	-0.0012363200187683102	1.0306600341796874	-0.01818950080871582	0.0038878800868988026	1.0183599853515626	-0.0190093994140625	0.011121199607849122	0.991926025390625	-0.05997510147094726	0.01339210033416748	0.9976909790039062	-0.03505879974365234	0.0130423002243042	1.0401600341796875	-0.02147949981689453	0.019200899124145507	1.028989990234375	-0.018002099990844726	0.02918350028991699	1.0065999755859374	-0.057091899871826175	0.03273469924926758	1.006280029296875	-0.03623920059204101	0.02756879997253418	1.0465	-0.022965400695800782	0.032833099365234375	1.037800048828125	-0.02137929916381836	0.042036399841308594	1.0224000244140625	-0.051052799224853514	0.048153499603271484	1.018969970703125	-0.06112649917602539	0.019140499114990234	1.073260009765625
14	0.4666666666666667	-0.027425100326538086	-0.058866199493408204	0.9864769897460938	-0.03273600006103516	-0.043918800354003903	1.0087999877929688	-0.04116740036010742	-0.03386420059204102	1.03602001953125	-0.04346670150756836	-0.005509860038757324	1.05727001953125	-0.0329192008972168	-0.014130399703979493	1.022239990234375	-0.020564199447631836	-0.01237600040435791	1.007219970703125	-0.02597010040283203	-0.010145199775695802	0.98510400390625	-0.06148030090332031	-0.010555100440979005	0.99956298828125	-0.03081100082397461	-0.001098979949951171	1.0305	-0.018457500457763672	0.004031099796295166	1.0182000122070312	-0.019301099777221678	0.01125220012664795	0.9917659912109374	-0.0602333984375	0.013497200012207031	0.9976500244140625	-0.03522750091552734	0.013169699668884278	1.0398599853515624	-0.021730600357055666	0.019351600646972656	1.0289000244140625	-0.018309799194335938	0.029311899185180665	1.0064099731445313	-0.05733929824829102	0.03285879898071289	1.0062000122070311	-0.03654610061645508	0.027920000076293944	1.0463299560546875	-0.023238399505615234	0.03299420166015625	1.0376800537109374	-0.02166550064086914	0.04219960021972656	1.0222100219726562	-0.051324501037597656	0.04830089950561523	1.0189400024414061	-0.06116889953613281	0.01919809913635254	1.0730999755859374
